<?xml version="1.0"?>
<svg xmlns="http://www.w3.org/2000/svg" width="24" height="18" viewBox="0 0 24 18" fill="none">
<path d="M7.48439 17.945C16.1055 17.945 20.821 11.0395 20.821 5.05519C20.821 4.86125 20.821 4.66731 20.8066 4.46645C21.7235 3.82413 22.5146 3.02903 23.1429 2.11843C22.2873 2.48698 21.3787 2.72753 20.4483 2.83184C21.4287 2.2663 22.1624 1.37497 22.5122 0.324519C21.5926 0.85173 20.5869 1.22412 19.5382 1.4258C18.8312 0.700073 17.8965 0.219765 16.8787 0.0592057C15.8609 -0.101354 14.8167 0.0667875 13.9077 0.537609C12.9987 1.00843 12.2756 1.75568 11.8502 2.66373C11.4249 3.57178 11.3211 4.58999 11.5549 5.56081C9.69154 5.4708 7.8686 5.00313 6.20436 4.18814C4.54013 3.37316 3.07179 2.22908 1.89464 0.830139C1.29472 1.82686 1.11047 3.00713 1.37943 4.13056C1.64838 5.25399 2.35031 6.23608 3.34224 6.87681C2.59575 6.85626 1.86549 6.66139 1.21384 6.30885V6.36426C1.21544 7.41001 1.59079 8.42313 2.27638 9.23216C2.96197 10.0412 3.91569 10.5965 4.97617 10.804C4.28672 10.985 3.56357 11.011 2.8621 10.8802C3.16195 11.78 3.74514 12.5667 4.53018 13.1305C5.31522 13.6943 6.26288 14.0069 7.24074 14.0248C5.58099 15.2845 3.53203 15.9698 1.42166 15.971C1.04808 15.971 0.674817 15.9502 0.303711 15.9087C2.44529 17.2399 4.93817 17.9468 7.48439 17.945Z" fill="#23D1AE"/>
</svg>
