<?xml version="1.0"?>
<svg xmlns="http://www.w3.org/2000/svg" width="23" height="23" viewBox="0 0 23 23" fill="none">
<path fill-rule="evenodd" clip-rule="evenodd" d="M18.5943 5.15608C18.5943 5.88913 18 6.48325 17.2671 6.48325C16.5342 6.48325 15.9399 5.88913 15.9399 5.15608C15.9399 4.42303 16.5342 3.82891 17.2671 3.82891C18.0001 3.82891 18.5943 4.42303 18.5943 5.15608ZM11.3634 14.7463C9.32742 14.7463 7.67692 13.0958 7.67692 11.0597C7.67692 9.0237 9.32742 7.37321 11.3634 7.37321C13.3995 7.37321 15.05 9.0237 15.05 11.0597C15.05 13.0958 13.3995 14.7463 11.3634 14.7463ZM11.3634 5.38039C8.2268 5.38039 5.6841 7.92309 5.6841 11.0597C5.6841 14.1964 8.2268 16.7391 11.3634 16.7391C14.5001 16.7391 17.0428 14.1964 17.0428 11.0597C17.0428 7.92309 14.5001 5.38039 11.3634 5.38039ZM11.3634 1.99283C14.3166 1.99283 14.6663 2.00406 15.8324 2.05728C16.9108 2.10653 17.4964 2.2866 17.8861 2.43815C18.4023 2.63878 18.7707 2.87847 19.1578 3.26556C19.5449 3.65248 19.7846 4.0209 19.9852 4.53726C20.1366 4.92694 20.3168 5.51259 20.3661 6.59091C20.4193 7.75719 20.4305 8.10696 20.4305 11.0601C20.4305 14.0132 20.4193 14.363 20.3661 15.5291C20.3168 16.6074 20.1367 17.193 19.9852 17.5827C19.7846 18.0989 19.5449 18.4673 19.1578 18.8544C18.7709 19.2415 18.4024 19.4812 17.8861 19.6818C17.4964 19.8332 16.9108 20.0135 15.8324 20.0627C14.6663 20.1159 14.3166 20.1272 11.3634 20.1272C8.41015 20.1272 8.06039 20.1159 6.89427 20.0627C5.81595 20.0135 5.2303 19.8334 4.84062 19.6818C4.32444 19.4812 3.95601 19.2415 3.56892 18.8544C3.18201 18.4675 2.94215 18.0991 2.74152 17.5827C2.59014 17.193 2.4099 16.6074 2.36065 15.5291C2.30742 14.3628 2.29619 14.013 2.29619 11.0601C2.29619 8.10696 2.30742 7.75719 2.36065 6.59091C2.4099 5.51259 2.58997 4.92694 2.74152 4.53726C2.94215 4.02108 3.18183 3.65265 3.56892 3.26556C3.95584 2.87847 4.32427 2.63878 4.84062 2.43815C5.2303 2.28677 5.81595 2.10653 6.89427 2.05728C8.06056 2.00406 8.41032 1.99283 11.3634 1.99283ZM11.3634 0C8.35986 0 7.98314 0.0127878 6.80355 0.0665312C5.62638 0.120275 4.8223 0.307253 4.11897 0.580636C3.39162 0.863178 2.77487 1.24145 2.16002 1.85631C1.54517 2.47116 1.16689 3.08791 0.884347 3.81526C0.610964 4.51876 0.423986 5.32267 0.370242 6.49984C0.316499 7.67943 0.303711 8.05615 0.303711 11.0597C0.303711 14.0633 0.316499 14.44 0.370242 15.6196C0.423986 16.7968 0.610964 17.6007 0.884347 18.3042C1.16689 19.0316 1.54517 19.6483 2.16002 20.2632C2.77487 20.878 3.39162 21.2561 4.11897 21.5388C4.82248 21.8122 5.62638 21.9992 6.80355 22.0529C7.98314 22.1067 8.35986 22.1195 11.3634 22.1195C14.367 22.1195 14.7437 22.1067 15.9233 22.0529C17.1005 21.9992 17.9044 21.8122 18.6079 21.5388C19.3353 21.2561 19.952 20.878 20.5669 20.2632C21.1817 19.6483 21.5598 19.0316 21.8425 18.3042C22.1159 17.6007 22.3029 16.7968 22.3566 15.6196C22.4104 14.44 22.4232 14.0633 22.4232 11.0597C22.4232 8.05615 22.4104 7.67943 22.3566 6.49984C22.3029 5.32267 22.1159 4.51876 21.8425 3.81526C21.5598 3.08791 21.1817 2.47116 20.5669 1.85631C19.952 1.24145 19.3353 0.86335 18.6079 0.580636C17.9044 0.307253 17.1005 0.120275 15.9233 0.0665312C14.7437 0.0127878 14.367 0 11.3634 0Z" fill="#23D1AE"/>
</svg>
