<?xml version="1.0"?>
<svg xmlns="http://www.w3.org/2000/svg" width="20" height="18" viewBox="0 0 20 18" fill="none">
<path d="M0.618423 5.95713H4.64973V17.9407H0.618423V5.95713ZM2.64157 0C3.10396 0 3.55596 0.126752 3.94042 0.364226C4.32488 0.601701 4.62452 0.939232 4.80147 1.33414C4.97842 1.72904 5.02472 2.16359 4.93451 2.58282C4.8443 3.00205 4.62164 3.38714 4.29469 3.68938C3.96773 3.99163 3.55117 4.19746 3.09766 4.28085C2.64416 4.36424 2.1741 4.32145 1.74691 4.15787C1.31972 3.99429 0.954599 3.71729 0.697711 3.36188C0.440824 3.00648 0.303711 2.58863 0.303711 2.16119C0.304504 1.58823 0.551068 1.03895 0.98933 0.633808C1.42759 0.228665 2.02178 0.000733153 2.64157 0Z" fill="#23D1AE"/>
<path d="M7.18237 5.95703H11.0413V7.60009H11.0938C11.6333 6.65803 12.9446 5.66748 14.9078 5.66748C18.9841 5.66748 19.7409 8.14731 19.7409 11.3752V17.9419H15.7171V12.1164C15.7171 10.7241 15.6946 8.93698 13.6265 8.93698C11.5284 8.93698 11.2137 10.454 11.2137 12.0125V17.9419H7.18986V5.95841L7.18237 5.95703Z" fill="#23D1AE"/>
</svg>
